<svg id="flat" height="512" viewBox="0 0 64 64" width="512" xmlns="http://www.w3.org/2000/svg"><path d="m17 31h8v10h-8z" fill="#f2cca0"/><path d="m32 10v13a11 11 0 0 1 -22 0v-13z" fill="#ffd7a8"/><path d="m14 6a3 3 0 0 1 3-3h13a2 2 0 0 1 2 2v8l-2.26385-1.50923a2 2 0 0 0 -1.59447-.27619l-6.65661 1.66415a2 2 0 0 1 -.97014 0l-6.65661-1.66415a2 2 0 0 0 -1.59447.27619l-2.26385 1.50923v-4a3 3 0 0 1 3-3z" fill="#806b53"/><circle cx="16" cy="21" fill="#8c7558" r="1"/><path d="m14 16h4v2h-4z" fill="#806b53"/><circle cx="26" cy="21" fill="#8c7558" r="1"/><path d="m24 16h4v2h-4z" fill="#806b53"/><path d="m20 22h2v4h-2z" fill="#bf9f78"/><path d="m21 30a7.99016 7.99016 0 0 1 -4.12354-1.14355l1.03223-1.7129a6.10765 6.10765 0 0 0 6.18262 0l1.03223 1.7129a7.99016 7.99016 0 0 1 -4.12354 1.14355z" fill="#bf9f78"/><path d="m3 62v-14.64639a4 4 0 0 1 2.05743-3.49661l6.94257-3.857 9 1 9-1 6.94257 3.857a4 4 0 0 1 2.05743 3.49661v14.64639z" fill="#aeaeae"/><path d="m25 62v-3l-2.271-12.492h-3.458l-2.271 12.492v3z" fill="#69aee6"/><path d="m24 41v6a1 1 0 0 1 -1 1h-4a1 1 0 0 1 -1-1v-6z" fill="#75c1ff"/><path d="m16.36424 37.90949 4.63576 3.09051-2.36844 3.15792a1 1 0 0 1 -1.44019.16822l-5.19137-4.32614 1.84062-1.84062a2 2 0 0 1 2.52362-.24989z" fill="#eee"/><path d="m25.63576 37.90949-4.63576 3.09051 2.36844 3.15792a1 1 0 0 0 1.44019.16822l5.19137-4.32614-1.84062-1.84062a2 2 0 0 0 -2.52362-.24989z" fill="#eee"/><path d="m33 61h23.9999a4 4 0 0 0 4-4v-52a2 2 0 0 0 -2-2h-19.99998a2 2 0 0 0 -2 2v41h-3.99992z" fill="#eee"/><path d="m56 17v-9a1 1 0 0 0 -1-1h-2a1 1 0 0 0 -1 1v9z" fill="#e6cf98"/><path d="m33 46a4 4 0 0 1 4 4v9a2 2 0 0 1 -2 2h-6a0 0 0 0 1 0 0v-11a4 4 0 0 1 4-4z" fill="#e1e1e1" transform="matrix(-1 0 0 -1 66 107)"/><path d="m56.4011 16.18077-6.82764-4.77935a1 1 0 0 0 -1.14692 0l-6.82764 4.77935a1 1 0 0 0 .57347 1.81923h13.65526a1 1 0 0 0 .57347-1.81923z" fill="#f38262"/><path d="m42 18h14a0 0 0 0 1 0 0v8a2 2 0 0 1 -2 2h-10a2 2 0 0 1 -2-2v-8a0 0 0 0 1 0 0z" fill="#ffe6a9"/><path d="m48 22h2a1 1 0 0 1 1 1v5a0 0 0 0 1 0 0h-4a0 0 0 0 1 0 0v-5a1 1 0 0 1 1-1z" fill="#e6cf98"/><rect fill="#eac761" height="4" rx="1" width="4" x="41" y="34"/><path d="m44 39h-2a2.002 2.002 0 0 1 -2-2v-2a2.002 2.002 0 0 1 2-2h2a2.002 2.002 0 0 1 2 2v2a2.002 2.002 0 0 1 -2 2zm-2-4v2h2.00146l-.00146-2z" fill="#ffdd6d"/><rect fill="#64af6c" height="4" rx="1" transform="matrix(-1 0 0 -1 110 104)" width="4" x="53" y="50"/><path d="m56 55h-2a2.002 2.002 0 0 1 -2-2v-2a2.002 2.002 0 0 1 2-2h2a2.002 2.002 0 0 1 2 2v2a2.002 2.002 0 0 1 -2 2zm-2-4v2h2v-2z" fill="#82e28c"/><g fill="#aeaeae"><path d="m48 33h2v2h-2z"/><path d="m52 33h6v2h-6z"/><path d="m48 37h2v2h-2z"/><path d="m52 37h6v2h-6z"/><path d="m48 49h2v2h-2z"/><path d="m41 49h5v2h-5z"/><path d="m48 53h2v2h-2z"/><path d="m41 53h5v2h-5z"/><path d="m48 41h2v2h-2z"/><path d="m52 41h6v2h-6z"/><path d="m48 45h2v2h-2z"/><path d="m52 45h6v2h-6z"/></g><path d="m8 50h2v12h-2z" fill="#a1a1a1"/></svg>